<?xml version="1.0" standalone="no"?><!DOCTYPE svg PUBLIC "-//W3C//DTD SVG 1.1//EN" "http://www.w3.org/Graphics/SVG/1.1/DTD/svg11.dtd"><svg t="1483160249926" class="icon" style="" viewBox="0 0 1024 1024" version="1.1" xmlns="http://www.w3.org/2000/svg" p-id="907" xmlns:xlink="http://www.w3.org/1999/xlink" width="200" height="200"><defs><style type="text/css"></style></defs><path d="M733.070479 514.788756C733.070515 246.688393 588.908974 110.771039 588.908974 110.771039 564.951444 82.332723 568.116275 39.242745 595.920804 14.577456L593.052611 17.121817C620.882668-7.566117 663.855698-5.383382 687.320381 23.455066 687.320381 23.455066 855.826017 178.752577 855.826033 514.788756 855.826053 850.824934 687.965747 999.875425 687.965747 999.875425 663.376727 1027.732485 620.115092 1031.123471 591.40482 1007.50422L597.568589 1012.575007C568.828488 988.93121 565.689155 947.413366 588.967946 918.317722 588.967946 918.317722 733.070449 782.889114 733.070479 514.788756Z" p-id="908"></path><path d="M465.99094 506.977989C465.990946 401.843843 384.322547 314.317751 384.322547 314.317751 361.629056 284.900947 365.81859 241.017748 393.623118 216.352459L390.754928 218.89682C418.584983 194.208887 460.809684 197.058268 483.335302 226.622791 483.335302 226.622791 586.670817 327.041211 586.670812 506.977989 586.670807 686.914765 483.38418 786.961336 483.38418 786.961336 460.056513 815.885174 418.189371 819.83828 389.823286 795.750083L394.554764 799.768003C366.210175 775.698058 362.010363 732.561393 383.853471 702.499743 383.853471 702.499743 465.990935 612.112133 465.99094 506.977989Z" p-id="909"></path><path d="M199.365835 505.691982C199.365837 462.607896 179.624234 449.442406 179.624234 449.442406 158.189524 419.101172 163.399502 374.468575 191.20403 349.803286L188.33584 352.347646C216.165894 327.659713 255.603638 332.585182 274.315857 364.755421 274.315857 364.755421 316.506269 410.662995 316.506268 505.691973 316.506268 600.720952 274.372646 646.290437 274.372646 646.290437 254.685886 677.781315 215.770282 683.815424 187.404197 659.727222L192.135675 663.745147C163.791087 639.675203 158.858732 595.994665 178.76356 564.583398 178.76356 564.583398 199.365833 548.776069 199.365835 505.691982Z" p-id="910"></path></svg>